<svg viewBox="0 0 200 200" xmlns="http://www.w3.org/2000/svg">
  <!-- Background Circle -->
  <circle cx="100" cy="100" r="95" fill="#1F3A93" stroke="#FFD700" stroke-width="2"/>
  
  <!-- Central Design -->
  <g fill="#FFD700">
    <!-- Letter N -->
    <rect x="30" y="50" width="15" height="100" rx="3"/>
    <polygon points="45,50 65,130 70,130 50,50"/>
    <rect x="55" y="50" width="15" height="100" rx="3"/>
    
    <!-- Letter Y -->
    <line x1="85" y1="50" x2="95" y2="85" stroke="#FFD700" stroke-width="15" stroke-linecap="round"/>
    <line x1="115" y1="50" x2="95" y2="85" stroke="#FFD700" stroke-width="15" stroke-linecap="round"/>
    <rect x="90" y="85" width="10" height="65" rx="3" fill="#FFD700"/>
    
    <!-- Letter F -->
    <rect x="125" y="50" width="15" height="100" rx="3"/>
    <rect x="140" y="50" width="25" height="15" rx="3"/>
    <rect x="140" y="80" width="20" height="15" rx="3"/>
  </g>
  
  <!-- Bottom Text -->
  <text x="100" y="165" font-size="12" font-weight="bold" fill="#FFD700" text-anchor="middle" font-family="Arial, sans-serif">
    NYFF
  </text>
  
  <!-- Stars for innovation -->
  <circle cx="25" cy="25" r="3" fill="#FFD700"/>
  <circle cx="175" cy="25" r="3" fill="#FFD700"/>
  <circle cx="25" cy="175" r="3" fill="#FFD700"/>
  <circle cx="175" cy="175" r="3" fill="#FFD700"/>
</svg>